# xmcd
#
# Track frame offsets:
#   150
#   12795
#   21062
#   24320
#   30425
#   50345
#   69220
#   88950
#   110545
#   120112
#   138182
#   150402
#   167765
#   169615
#   185952
#   196170
#   199227
#   206502
#   213637
#   230450
#   242375
#   251905
#   273012
#   290070
#   296037
#   313570
#   325450
#
# Disc length: 4549 seconds
#
# Submitted via: SoundJam 2.0
#
# Revision: 0
# Processed by: cddbd v1.4PL0 Copyright (c) Steve Scherf et al.
#
DISCID=7911c31b
DTITLE=Various Artist - Alan Lomax Collection - Vol. 2-Classic Ballads Of Bri
DTITLE=t
DYEAR=1900
DGENRE=
TTITLE0=The Royal Forester (The Knight And The Shepherd'S Daughter)
TTITLE1=The Baffled Knight (Clear Away The Morning Dew)
TTITLE2=Robin Hood And Little John
TTITLE3=The Jew'S Daughter (Sir Hugh)
TTITLE4=The Battle Of Harlaw
TTITLE5=Mary Hamilton (The Four Marys)
TTITLE6=The Bonny Hoose O Airlie
TTITLE7=The Gypsy Laddie
TTITLE8=Georgie (Geordie)
TTITLE9=The Dowie Dens O Yarrow
TTITLE10=Clyde'S Water (The Mother'S Malison)
TTITLE11=The Green Wedding (Catherine Jaffray)
TTITLE12=Eppie Morrie
TTITLE13=The Laird O Drum
TTITLE14=Glenlogie (Jean O Bethelnie)
TTITLE15=The Bonny Rantin Laddie
TTITLE16=The Grey Ghost
TTITLE17=Lang Johnny More
TTITLE18=Willie'S Fatal Visit (Willie'S Fate)
TTITLE19=The Cuckold'S Song (Our Goodman)
TTITLE20=The Farmer'S Curst Wife
TTITLE21=The Jolly Beggar
TTITLE22=The Beggarman (The Gaberlunzie Man)
TTITLE23=The Keach In The Creel
TTITLE24=The Golden Victory (Golden Vanity)
TTITLE25=The Mermaid
TTITLE26=The Trooper And The Maid
EXTD=
EXTT0=
EXTT1=
EXTT2=
EXTT3=
EXTT4=
EXTT5=
EXTT6=
EXTT7=
EXTT8=
EXTT9=
EXTT10=
EXTT11=
EXTT12=
EXTT13=
EXTT14=
EXTT15=
EXTT16=
EXTT17=
EXTT18=
EXTT19=
EXTT20=
EXTT21=
EXTT22=
EXTT23=
EXTT24=
EXTT25=
EXTT26=
PLAYORDER=
